<svg width="87" height="31" viewBox="0 0 87 31" fill="none" xmlns="http://www.w3.org/2000/svg">
<path d="M9.67 30.2C9.29 30.3 8.99 30.22 8.77 29.96C8.55 29.7 8.41 29.3 8.35 28.76C8.31 28.22 8.37 27.58 8.53 26.84C8.63 26.6 8.71 26.36 8.77 26.12C8.83 25.9 8.86 25.72 8.86 25.58C8.9 25.42 9 25.07 9.16 24.53C9.32 23.97 9.51 23.33 9.73 22.61C9.97 21.89 10.2 21.18 10.42 20.48C10.66 19.76 10.86 19.16 11.02 18.68C11.2 18.18 11.31 17.9 11.35 17.84C11.43 17.84 11.5 17.77 11.56 17.63C11.62 17.49 11.65 17.35 11.65 17.21C11.65 17.05 11.68 16.87 11.74 16.67C11.82 16.47 11.9 16.33 11.98 16.25C11.98 16.15 12 16.04 12.04 15.92C12.1 15.78 12.13 15.67 12.13 15.59C12.13 15.51 12.15 15.43 12.19 15.35C12.25 15.27 12.28 15.19 12.28 15.11C12.4 14.89 12.58 14.48 12.82 13.88C13.08 13.26 13.37 12.54 13.69 11.72C14.03 10.88 14.37 10.02 14.71 9.14C15.05 8.24 15.37 7.39 15.67 6.59C15.97 5.79 16.21 5.13 16.39 4.61C16.57 4.09 16.66 3.79 16.66 3.71C16.66 3.55 16.7 3.43 16.78 3.35C16.86 3.27 16.98 3.23 17.14 3.23C17.2 3.17 17.27 3.13 17.35 3.11C17.45 3.09 17.54 3.08 17.62 3.08C17.62 3.08 17.66 3.12 17.74 3.2C17.82 3.28 17.94 3.4 18.1 3.56C18.26 3.7 18.35 3.86 18.37 4.04C18.41 4.22 18.43 4.43 18.43 4.67C18.43 4.93 18.4 5.16 18.34 5.36C18.28 5.56 18.16 5.85 17.98 6.23C17.8 6.61 17.52 7.2 17.14 8C17.08 8.16 16.96 8.44 16.78 8.84C16.6 9.24 16.4 9.69 16.18 10.19C15.98 10.69 15.77 11.18 15.55 11.66C15.35 12.12 15.18 12.51 15.04 12.83C14.92 13.15 14.86 13.33 14.86 13.37C14.86 13.45 14.82 13.57 14.74 13.73C14.68 13.89 14.61 14.09 14.53 14.33C14.45 14.49 14.34 14.73 14.2 15.05C14.06 15.35 13.91 15.68 13.75 16.04C13.61 16.38 13.49 16.68 13.39 16.94C13.29 17.18 13.24 17.32 13.24 17.36C13.24 17.44 13.23 17.52 13.21 17.6C13.21 17.68 13.17 17.76 13.09 17.84C13.01 17.84 12.96 17.9 12.94 18.02C12.94 18.12 12.94 18.17 12.94 18.17C12.94 18.37 12.78 18.9 12.46 19.76C12.32 20.2 12.15 20.76 11.95 21.44C11.75 22.12 11.53 22.85 11.29 23.63C11.07 24.39 10.86 25.13 10.66 25.85C10.46 26.57 10.29 27.2 10.15 27.74C10.03 28.3 9.97 28.69 9.97 28.91C9.97 29.39 9.96 29.7 9.94 29.84C9.92 30 9.83 30.12 9.67 30.2ZM2.38 20.66C2.26 20.66 2.11 20.66 1.93 20.66C1.75 20.64 1.55 20.59 1.33 20.51C1.03 20.51 0.83 20.48 0.73 20.42C0.63 20.34 0.54 20.23 0.46 20.09C0.24 19.79 0.22 19.59 0.4 19.49C0.58 19.37 1.04 19.27 1.78 19.19C2 19.13 2.43 19.08 3.07 19.04C3.71 19 4.47 18.97 5.35 18.95C6.25 18.91 7.18 18.88 8.14 18.86C9.12 18.84 10.06 18.83 10.96 18.83C11.86 18.81 12.65 18.8 13.33 18.8C14.01 18.78 14.48 18.77 14.74 18.77C15.26 18.77 15.61 18.79 15.79 18.83C15.97 18.87 16.17 19 16.39 19.22C16.69 19.52 16.8 19.81 16.72 20.09C16.64 20.35 16.37 20.44 15.91 20.36C15.77 20.38 15.51 20.4 15.13 20.42C14.75 20.44 14.38 20.47 14.02 20.51C13.94 20.51 13.63 20.52 13.09 20.54C12.55 20.54 11.87 20.55 11.05 20.57C10.25 20.57 9.39 20.58 8.47 20.6C7.55 20.6 6.66 20.61 5.8 20.63C4.94 20.63 4.2 20.64 3.58 20.66C2.98 20.66 2.58 20.66 2.38 20.66ZM3.07 30.2C2.69 30.3 2.38 30.22 2.14 29.96C1.92 29.7 1.79 29.3 1.75 28.76C1.71 28.22 1.77 27.58 1.93 26.84C2.03 26.6 2.11 26.36 2.17 26.12C2.23 25.9 2.26 25.72 2.26 25.58C2.3 25.42 2.4 25.07 2.56 24.53C2.72 23.97 2.91 23.33 3.13 22.61C3.37 21.89 3.6 21.18 3.82 20.48C4.06 19.76 4.26 19.16 4.42 18.68C4.6 18.18 4.71 17.9 4.75 17.84C4.83 17.84 4.9 17.77 4.96 17.63C5.02 17.49 5.05 17.35 5.05 17.21C5.05 17.05 5.08 16.87 5.14 16.67C5.22 16.47 5.3 16.33 5.38 16.25C5.38 16.15 5.4 16.04 5.44 15.92C5.5 15.78 5.53 15.67 5.53 15.59C5.53 15.51 5.55 15.43 5.59 15.35C5.65 15.27 5.68 15.19 5.68 15.11C5.8 14.89 5.98 14.48 6.22 13.88C6.48 13.26 6.77 12.54 7.09 11.72C7.43 10.88 7.77 10.02 8.11 9.14C8.45 8.24 8.77 7.39 9.07 6.59C9.37 5.79 9.61 5.13 9.79 4.61C9.97 4.09 10.06 3.79 10.06 3.71C10.06 3.55 10.1 3.43 10.18 3.35C10.26 3.27 10.38 3.23 10.54 3.23C10.6 3.17 10.67 3.13 10.75 3.11C10.85 3.09 10.94 3.08 11.02 3.08C11.02 3.08 11.06 3.12 11.14 3.2C11.22 3.28 11.34 3.4 11.5 3.56C11.66 3.7 11.75 3.86 11.77 4.04C11.81 4.22 11.83 4.43 11.83 4.67C11.83 4.93 11.8 5.16 11.74 5.36C11.68 5.56 11.56 5.85 11.38 6.23C11.2 6.61 10.92 7.2 10.54 8C10.48 8.16 10.36 8.44 10.18 8.84C10 9.24 9.8 9.69 9.58 10.19C9.38 10.69 9.17 11.18 8.95 11.66C8.75 12.12 8.58 12.51 8.44 12.83C8.32 13.15 8.26 13.33 8.26 13.37C8.26 13.45 8.22 13.57 8.14 13.73C8.08 13.89 8.01 14.09 7.93 14.33C7.85 14.49 7.74 14.73 7.6 15.05C7.46 15.35 7.31 15.68 7.15 16.04C7.01 16.38 6.89 16.68 6.79 16.94C6.69 17.18 6.64 17.32 6.64 17.36C6.64 17.44 6.63 17.52 6.61 17.6C6.61 17.68 6.57 17.76 6.49 17.84C6.41 17.84 6.36 17.9 6.34 18.02C6.34 18.12 6.34 18.17 6.34 18.17C6.34 18.37 6.18 18.9 5.86 19.76C5.72 20.2 5.55 20.76 5.35 21.44C5.15 22.12 4.93 22.85 4.69 23.63C4.47 24.39 4.26 25.13 4.06 25.85C3.86 26.57 3.69 27.2 3.55 27.74C3.43 28.3 3.37 28.69 3.37 28.91C3.37 29.39 3.36 29.7 3.34 29.84C3.32 30 3.23 30.12 3.07 30.2ZM4.21 14.66C4.09 14.66 3.94 14.66 3.76 14.66C3.58 14.64 3.38 14.59 3.16 14.51C2.86 14.51 2.66 14.48 2.56 14.42C2.46 14.34 2.37 14.23 2.29 14.09C2.07 13.79 2.05 13.59 2.23 13.49C2.41 13.37 2.87 13.27 3.61 13.19C3.83 13.13 4.26 13.08 4.9 13.04C5.54 13 6.3 12.97 7.18 12.95C8.08 12.91 9.01 12.88 9.97 12.86C10.95 12.84 11.89 12.83 12.79 12.83C13.69 12.81 14.48 12.8 15.16 12.8C15.84 12.78 16.31 12.77 16.57 12.77C17.09 12.77 17.44 12.79 17.62 12.83C17.8 12.87 18 13 18.22 13.22C18.52 13.52 18.63 13.81 18.55 14.09C18.47 14.35 18.2 14.44 17.74 14.36C17.6 14.38 17.34 14.4 16.96 14.42C16.58 14.44 16.21 14.47 15.85 14.51C15.77 14.51 15.46 14.52 14.92 14.54C14.38 14.54 13.7 14.55 12.88 14.57C12.08 14.57 11.22 14.58 10.3 14.6C9.38 14.6 8.49 14.61 7.63 14.63C6.77 14.63 6.03 14.64 5.41 14.66C4.81 14.66 4.41 14.66 4.21 14.66ZM33.7478 6.71C34.1478 6.73 34.4078 6.9 34.5278 7.22C34.6478 7.52 34.6278 7.94 34.4678 8.48C34.3078 9.02 33.9878 9.63 33.5078 10.31C33.0478 10.77 32.7878 11.16 32.7278 11.48C32.5878 11.66 32.3678 11.92 32.0678 12.26C31.7878 12.58 31.4778 12.93 31.1378 13.31C30.8178 13.67 30.5278 13.99 30.2678 14.27C30.0278 14.55 29.8678 14.72 29.7878 14.78C29.5078 15.02 29.1878 15.3 28.8278 15.62C28.4878 15.94 28.1778 16.24 27.8978 16.52C27.6378 16.78 27.4678 16.96 27.3878 17.06C27.2478 17.2 27.1178 17.35 26.9978 17.51C26.8778 17.65 26.7678 17.74 26.6678 17.78C26.6478 17.86 26.5878 17.96 26.4878 18.08C26.3878 18.18 26.3178 18.28 26.2778 18.38C26.2378 18.4 26.1078 18.51 25.8878 18.71C25.6678 18.91 25.4178 19.14 25.1378 19.4C24.8778 19.64 24.6378 19.86 24.4178 20.06C24.2178 20.26 24.1078 20.38 24.0878 20.42C23.8678 20.62 23.5278 20.97 23.0678 21.47C22.6078 21.95 22.0978 22.49 21.5378 23.09C20.9778 23.69 20.4378 24.28 19.9178 24.86C19.3978 25.42 18.9578 25.9 18.5978 26.3C18.2578 26.72 18.0678 26.98 18.0278 27.08C17.9478 27.24 17.8178 27.34 17.6378 27.38C17.4778 27.44 17.3178 27.45 17.1578 27.41C17.0778 27.45 16.9878 27.46 16.8878 27.44C16.8078 27.44 16.7478 27.43 16.7078 27.41C16.7078 27.41 16.6878 27.36 16.6478 27.26C16.6078 27.16 16.5678 27 16.5278 26.78C16.4078 26.58 16.3778 26.39 16.4378 26.21C16.4978 26.03 16.5678 25.83 16.6478 25.61C16.7878 25.35 16.9278 25.13 17.0678 24.95C17.2078 24.77 17.4478 24.53 17.7878 24.23C18.1278 23.91 18.6478 23.42 19.3478 22.76C19.6678 22.44 19.9878 22.14 20.3078 21.86C20.6478 21.56 20.8278 21.38 20.8478 21.32C20.8678 21.24 20.9478 21.13 21.0878 20.99C21.2278 20.85 21.3678 20.68 21.5078 20.48C21.6478 20.38 21.8778 20.18 22.1978 19.88C22.5378 19.56 22.9078 19.21 23.3078 18.83C23.7078 18.43 24.0978 18.04 24.4778 17.66C24.8778 17.28 25.2078 16.97 25.4678 16.73C25.5878 16.57 25.7278 16.41 25.8878 16.25C26.0678 16.07 26.2578 15.86 26.4578 15.62C26.4778 15.58 26.6078 15.44 26.8478 15.2C27.1078 14.94 27.4078 14.64 27.7478 14.3C28.0878 13.94 28.4078 13.6 28.7078 13.28C29.0278 12.94 29.2678 12.68 29.4278 12.5C30.2278 11.56 30.9478 10.69 31.5878 9.89C32.2478 9.07 32.7078 8.38 32.9678 7.82C33.1678 7.4 33.3078 7.12 33.3878 6.98C33.4678 6.82 33.5878 6.73 33.7478 6.71ZM29.5178 26.81C29.1378 26.77 28.7578 26.57 28.3778 26.21C27.9978 25.87 27.5778 25.29 27.1178 24.47C26.3778 23.45 25.7278 22.22 25.1678 20.78C24.6078 19.32 24.2178 17.75 23.9978 16.07C23.8978 15.37 23.7878 14.77 23.6678 14.27C23.5478 13.75 23.4678 13.47 23.4278 13.43C23.4078 13.35 23.4178 13.3 23.4578 13.28C23.5178 13.24 23.5478 13.22 23.5478 13.22C23.6078 13.16 23.6178 13.1 23.5778 13.04C23.5378 12.96 23.4978 12.87 23.4578 12.77C23.4578 12.77 23.4078 12.54 23.3078 12.08C23.2078 11.62 23.1278 11.05 23.0678 10.37C22.9878 9.65 22.9178 9.03 22.8578 8.51C22.8178 7.97 22.7778 7.62 22.7378 7.46C22.6778 7.42 22.6478 7.36 22.6478 7.28C22.6478 7.2 22.6478 7.16 22.6478 7.16C22.6878 7.04 22.7478 6.94 22.8278 6.86C22.9078 6.76 22.9778 6.68 23.0378 6.62C23.3378 6.4 23.6278 6.36 23.9078 6.5C24.2078 6.62 24.4478 6.87 24.6278 7.25C24.8278 7.61 24.9278 8.04 24.9278 8.54C24.9278 9.06 24.9878 9.38 25.1078 9.5C25.0878 9.54 25.0778 9.69 25.0778 9.95C25.0978 10.21 25.1178 10.51 25.1378 10.85C25.1778 11.17 25.2178 11.47 25.2578 11.75C25.2978 12.03 25.3278 12.22 25.3478 12.32C25.2678 12.56 25.2678 12.73 25.3478 12.83C25.3678 12.99 25.3978 13.21 25.4378 13.49C25.4778 13.75 25.4878 13.93 25.4678 14.03C25.4478 14.13 25.4678 14.31 25.5278 14.57C25.6078 14.81 25.6778 15.06 25.7378 15.32L26.5178 18.02C26.6778 18.66 26.8278 19.23 26.9678 19.73C27.1078 20.21 27.2778 20.69 27.4778 21.17C27.6778 21.63 27.9178 22.15 28.1978 22.73C28.4178 23.21 28.6778 23.66 28.9778 24.08C29.2778 24.48 29.5478 24.75 29.7878 24.89C29.8278 24.93 29.9278 24.96 30.0878 24.98C30.2678 24.98 30.3778 24.95 30.4178 24.89C30.6378 24.83 30.7978 24.87 30.8978 25.01C31.0178 25.13 31.0978 25.29 31.1378 25.49C31.1978 25.67 31.2278 25.86 31.2278 26.06C31.2678 26.2 31.1978 26.33 31.0178 26.45C30.8578 26.59 30.6378 26.69 30.3578 26.75C30.0978 26.83 29.8178 26.85 29.5178 26.81ZM31.7985 26.99C31.4385 26.79 31.2385 26.57 31.1985 26.33C31.1785 26.09 31.3185 25.67 31.6185 25.07C31.9185 24.47 32.3885 23.54 33.0285 22.28C33.5085 21.38 33.8685 20.68 34.1085 20.18C34.3685 19.66 34.5385 19.29 34.6185 19.07C34.7185 18.85 34.7685 18.71 34.7685 18.65C34.7285 18.47 34.7485 18.33 34.8285 18.23C34.9085 18.11 35.0385 18.01 35.2185 17.93C35.3185 17.83 35.4785 17.65 35.6985 17.39C35.9385 17.13 36.1585 16.82 36.3585 16.46C36.5385 16.04 36.7485 15.61 36.9885 15.17C37.2285 14.73 37.5485 14.18 37.9485 13.52C38.3485 12.84 38.8685 11.96 39.5085 10.88C39.9085 10.18 40.3485 9.47 40.8285 8.75C41.3085 8.01 41.8185 7.28 42.3585 6.56C42.5785 6.28 42.7785 6.06 42.9585 5.9C43.1385 5.72 43.3185 5.64 43.4985 5.66C43.7385 5.66 44.0085 5.74 44.3085 5.9C44.6285 6.06 44.9185 6.27 45.1785 6.53C45.4385 6.79 45.6285 7.07 45.7485 7.37C45.8485 7.53 45.8885 7.87 45.8685 8.39C45.8485 8.91 45.8085 9.54 45.7485 10.28C45.6885 11.02 45.6185 11.81 45.5385 12.65C45.4785 13.47 45.3885 14.44 45.2685 15.56C45.1485 16.68 45.0285 17.85 44.9085 19.07C44.8085 20.29 44.7285 21.47 44.6685 22.61C44.6085 23.73 44.6085 24.71 44.6685 25.55C44.6885 25.73 44.6885 25.9 44.6685 26.06C44.6485 26.22 44.6385 26.35 44.6385 26.45C44.5185 26.57 44.3185 26.62 44.0385 26.6C43.7785 26.6 43.5185 26.54 43.2585 26.42C43.0185 26.3 42.8785 26.15 42.8385 25.97C42.7785 25.91 42.7385 25.83 42.7185 25.73C42.7185 25.61 42.7285 25.37 42.7485 25.01C42.7685 24.65 42.7885 24.08 42.8085 23.3L42.9585 18.44L42.5685 18.47C42.3885 18.47 42.0485 18.49 41.5485 18.53C41.0485 18.57 40.5085 18.63 39.9285 18.71C39.3485 18.77 38.8085 18.84 38.3085 18.92C37.8285 18.98 37.4985 19.04 37.3185 19.1C37.1385 19.1 36.9185 19.22 36.6585 19.46C36.4185 19.7 36.1885 20.01 35.9685 20.39C35.8885 20.67 35.7385 20.97 35.5185 21.29C35.3185 21.59 35.2185 21.79 35.2185 21.89C35.0785 21.99 34.9585 22.11 34.8585 22.25C34.7785 22.39 34.7385 22.46 34.7385 22.46C34.7385 22.58 34.6385 22.88 34.4385 23.36C34.2585 23.82 34.0285 24.34 33.7485 24.92C33.4685 25.48 33.1885 25.97 32.9085 26.39L32.2785 27.35L31.7985 26.99ZM38.0085 17.33C38.0085 17.33 38.1085 17.31 38.3085 17.27C38.5285 17.23 38.7785 17.19 39.0585 17.15C39.3585 17.09 39.6285 17.06 39.8685 17.06C40.7085 16.86 41.3185 16.73 41.6985 16.67C42.0785 16.59 42.3385 16.55 42.4785 16.55C42.6385 16.55 42.7785 16.58 42.8985 16.64C42.9785 16.74 43.0485 16.8 43.1085 16.82C43.1885 16.84 43.2285 16.85 43.2285 16.85C43.2485 16.81 43.2785 16.58 43.3185 16.16C43.3585 15.74 43.4085 15.22 43.4685 14.6C43.5485 13.98 43.6185 13.34 43.6785 12.68C43.7585 12 43.8185 11.38 43.8585 10.82C43.8985 10.24 43.9285 9.8 43.9485 9.5C43.9685 9.12 43.9885 8.78 44.0085 8.48C44.0285 8.16 44.0385 8 44.0385 8C43.9185 8 43.6585 8.22 43.2585 8.66C42.8785 9.1 42.4485 9.68 41.9685 10.4C41.4885 11.12 41.0385 11.89 40.6185 12.71C40.4185 13.09 40.2285 13.43 40.0485 13.73C39.8685 14.03 39.7285 14.18 39.6285 14.18C39.5885 14.22 39.4685 14.4 39.2685 14.72C39.0885 15.02 38.8885 15.37 38.6685 15.77C38.4485 16.15 38.2685 16.5 38.1285 16.82C37.9885 17.12 37.9485 17.29 38.0085 17.33ZM59.3071 28.37C58.9471 28.23 58.6471 28.04 58.4071 27.8C58.1871 27.56 58.1171 27.24 58.1971 26.84C58.1971 26.84 58.2771 26.65 58.4371 26.27C58.5971 25.91 58.7871 25.46 59.0071 24.92C59.2471 24.36 59.4771 23.81 59.6971 23.27C59.9171 22.73 60.1071 22.28 60.2671 21.92C60.4271 21.54 60.5071 21.35 60.5071 21.35C60.6471 20.99 60.8371 20.5 61.0771 19.88C61.3371 19.26 61.5871 18.63 61.8271 17.99C62.0871 17.33 62.3071 16.76 62.4871 16.28C62.6671 15.8 62.7571 15.53 62.7571 15.47C62.9771 14.97 63.1671 14.46 63.3271 13.94C63.4871 13.42 63.6871 12.92 63.9271 12.44C64.1071 12.04 64.2671 11.68 64.4071 11.36C64.5471 11.02 64.6171 10.72 64.6171 10.46C64.6171 10.46 64.4071 10.68 63.9871 11.12C63.5871 11.56 63.0471 12.15 62.3671 12.89C61.6871 13.61 60.9371 14.41 60.1171 15.29C59.3171 16.15 58.5071 17.02 57.6871 17.9C56.8871 18.78 56.1471 19.59 55.4671 20.33C54.7871 21.05 54.2371 21.63 53.8171 22.07C53.3971 22.51 53.1871 22.73 53.1871 22.73C52.7471 23.07 52.3371 23.44 51.9571 23.84C51.5971 24.22 51.1971 24.58 50.7571 24.92C50.5771 25.06 50.3571 25.24 50.0971 25.46C49.8371 25.66 49.5871 25.84 49.3471 26C49.1071 26.18 48.9271 26.27 48.8071 26.27C48.2271 26.17 47.8571 26.01 47.6971 25.79C47.5371 25.55 47.5071 25.26 47.6071 24.92C47.7071 24.56 47.8471 24.14 48.0271 23.66C48.1271 23.34 48.2171 23.02 48.2971 22.7C48.3971 22.36 48.4671 22.03 48.5071 21.71C48.6471 21.11 48.7971 20.55 48.9571 20.03C49.1171 19.51 49.2671 19.01 49.4071 18.53C49.5471 18.07 49.6871 17.61 49.8271 17.15C49.9671 16.67 50.0471 16.18 50.0671 15.68C50.3071 15.28 50.5071 14.89 50.6671 14.51C50.8271 14.11 50.9771 13.71 51.1171 13.31C51.2571 12.91 51.4171 12.51 51.5971 12.11C51.8171 11.63 51.9971 11.14 52.1371 10.64C52.2971 10.12 52.4871 9.61 52.7071 9.11C52.8471 8.83 53.0371 8.46 53.2771 8C53.5171 7.54 53.7371 7.07 53.9371 6.59C54.1571 6.11 54.2671 5.7 54.2671 5.36C54.2671 5.14 54.3471 5.02 54.5071 5C54.6671 4.98 54.8471 5.01 55.0471 5.09C55.2471 5.17 55.4171 5.27 55.5571 5.39C55.7171 5.51 55.8071 5.6 55.8271 5.66C55.8871 5.84 55.9271 6.03 55.9471 6.23C55.9871 6.43 55.9571 6.64 55.8571 6.86L53.3671 13.19L50.6371 20.42C50.3971 21.2 50.2571 21.81 50.2171 22.25C50.1971 22.69 50.3271 22.84 50.6071 22.7L56.6671 16.64C57.0071 16.28 57.3371 15.91 57.6571 15.53C57.9971 15.13 58.3171 14.74 58.6171 14.36C58.6971 14.32 58.8971 14.12 59.2171 13.76C59.5571 13.4 59.9471 12.97 60.3871 12.47C60.8271 11.97 61.2471 11.5 61.6471 11.06C62.0471 10.6 62.3471 10.26 62.5471 10.04L66.3571 5.99L66.9271 5.81C67.1071 5.79 67.2871 5.85 67.4671 5.99C67.6471 6.13 67.7771 6.31 67.8571 6.53C67.9571 6.75 67.9571 6.98 67.8571 7.22C67.8571 7.22 67.7571 7.48 67.5571 8C67.3771 8.52 67.1371 9.19 66.8371 10.01C66.5371 10.81 66.2171 11.66 65.8771 12.56C65.5571 13.46 65.2471 14.31 64.9471 15.11C64.6471 15.91 64.3971 16.57 64.1971 17.09C64.0171 17.59 63.9171 17.84 63.8971 17.84C63.9171 17.78 63.8471 17.94 63.6871 18.32C63.5471 18.7 63.3571 19.2 63.1171 19.82C62.8771 20.44 62.6271 21.08 62.3671 21.74C62.1071 22.38 61.8771 22.95 61.6771 23.45C61.4971 23.95 61.3871 24.27 61.3471 24.41C61.2671 24.67 61.1671 24.93 61.0471 25.19C60.9471 25.43 60.8371 25.67 60.7171 25.91C60.5771 26.17 60.4571 26.44 60.3571 26.72C60.2771 27.02 60.2071 27.31 60.1471 27.59C60.0871 27.81 59.9671 28.01 59.7871 28.19C59.6071 28.39 59.4471 28.45 59.3071 28.37ZM60.9571 4.28C60.2171 4.36 59.5971 4.18 59.0971 3.74C58.5971 3.3 58.2071 2.65 57.9271 1.79C57.8871 1.63 57.8771 1.49 57.8971 1.37C57.9171 1.23 57.9571 1.11 58.0171 1.01C58.0571 0.929999 58.1471 0.869999 58.2871 0.829999C58.4471 0.769998 58.5671 0.759998 58.6471 0.799999C58.9671 0.919999 59.2071 1.05 59.3671 1.19C59.5471 1.33 59.6571 1.51 59.6971 1.73C59.7571 1.83 59.7871 1.93 59.7871 2.03C59.8071 2.13 59.8171 2.17 59.8171 2.15C59.9371 2.47 60.0871 2.69 60.2671 2.81C60.4471 2.93 60.7271 2.92 61.1071 2.78C61.5071 2.64 61.8971 2.48 62.2771 2.3C62.6771 2.12 63.0371 1.9 63.3571 1.64C63.6371 1.42 63.8971 1.22 64.1371 1.04C64.3771 0.859999 64.6271 0.669999 64.8871 0.47L64.9171 0.439998C65.0171 0.379999 65.1371 0.359999 65.2771 0.379999C65.4171 0.399999 65.4971 0.429999 65.5171 0.47C65.6771 0.609999 65.7571 0.749999 65.7571 0.89C65.7771 1.03 65.7871 1.18 65.7871 1.34L65.7571 1.4C65.7971 1.52 65.6771 1.75 65.3971 2.09C65.1171 2.41 64.7871 2.7 64.4071 2.96C64.0871 3.18 63.7271 3.38 63.3271 3.56C62.9471 3.74 62.5571 3.91 62.1571 4.07C62.0171 4.15 61.8471 4.2 61.6471 4.22C61.4671 4.22 61.2371 4.24 60.9571 4.28ZM67.4329 26.69C66.8129 26.65 66.4429 26.54 66.3229 26.36C66.2229 26.18 66.1729 25.99 66.1729 25.79C66.2729 25.49 66.3829 25.2 66.5029 24.92C66.6429 24.64 66.7429 24.34 66.8029 24.02C66.8629 23.76 66.9229 23.52 66.9829 23.3C67.0429 23.08 67.1129 22.84 67.1929 22.58C67.3529 22.1 67.5329 21.51 67.7329 20.81C67.9529 20.11 68.1829 19.41 68.4229 18.71C68.6629 18.01 68.8729 17.43 69.0529 16.97C69.2129 16.51 69.3429 16.12 69.4429 15.8C69.5629 15.48 69.6829 15.17 69.8029 14.87C69.9229 14.57 70.0529 14.21 70.1929 13.79C70.2929 13.53 70.3829 13.28 70.4629 13.04C70.5429 12.78 70.6229 12.52 70.7029 12.26C70.8029 12 70.8929 11.75 70.9729 11.51C71.0729 11.25 71.1629 10.99 71.2429 10.73C71.4629 10.27 71.6529 9.83 71.8129 9.41C71.9929 8.99 72.1529 8.53 72.2929 8.03C72.3729 7.85 72.3629 7.72 72.2629 7.64C72.1829 7.56 72.1429 7.39 72.1429 7.13C72.1229 6.89 72.1829 6.72 72.3229 6.62C72.4829 6.5 72.6829 6.47 72.9229 6.53C73.2029 6.59 73.5929 6.64 74.0929 6.68C74.6129 6.72 75.0829 6.74 75.5029 6.74C75.9429 6.72 76.1829 6.7 76.2229 6.68C76.3229 6.64 76.6529 6.58 77.2129 6.5C77.7729 6.4 78.4529 6.29 79.2529 6.17C80.0529 6.05 80.8729 5.94 81.7129 5.84C82.5729 5.74 83.3329 5.65 83.9929 5.57C84.2129 5.53 84.4229 5.53 84.6229 5.57C84.8429 5.61 85.0529 5.65 85.2529 5.69C85.5129 5.73 85.7729 5.87 86.0329 6.11C86.2929 6.35 86.3829 6.64 86.3029 6.98C86.2229 7.2 86.0529 7.32 85.7929 7.34C85.5329 7.34 85.1829 7.3 84.7429 7.22C84.7029 7.22 84.6629 7.3 84.6229 7.46C84.5829 7.62 84.5329 7.81 84.4729 8.03C84.4329 8.25 84.3629 8.48 84.2629 8.72C84.1429 8.86 84.0029 9.13 83.8429 9.53C83.7029 9.93 83.5529 10.37 83.3929 10.85C83.2329 11.33 83.1029 11.77 83.0029 12.17C82.9029 12.57 82.8529 12.85 82.8529 13.01C82.5729 13.45 82.3729 13.93 82.2529 14.45C82.1529 14.97 82.0229 15.46 81.8629 15.92C81.8429 16 81.7629 16.28 81.6229 16.76C81.5029 17.22 81.3529 17.78 81.1729 18.44C80.9929 19.1 80.8129 19.76 80.6329 20.42C80.4529 21.06 80.3029 21.61 80.1829 22.07C80.0629 22.53 80.0029 22.79 80.0029 22.85C79.9829 23.25 79.9329 23.66 79.8529 24.08C79.7929 24.5 79.7529 24.91 79.7329 25.31C79.7529 25.39 79.7629 25.46 79.7629 25.52C79.7629 25.56 79.7229 25.6 79.6429 25.64C79.4829 25.78 79.2129 25.85 78.8329 25.85C78.4529 25.83 78.2129 25.76 78.1129 25.64C78.0329 25.48 77.9629 25.34 77.9029 25.22C77.8429 25.08 77.8229 24.93 77.8429 24.77C77.8829 24.21 77.9529 23.65 78.0529 23.09C78.1529 22.53 78.2429 21.99 78.3229 21.47C78.4229 20.95 78.5429 20.48 78.6829 20.06C78.8229 19.64 78.9229 19.41 78.9829 19.37L79.5529 17.24C79.7729 16.64 79.9129 16.17 79.9729 15.83C80.0329 15.47 80.0929 15.12 80.1529 14.78C80.2329 14.44 80.3729 14 80.5729 13.46C80.7729 12.96 80.9329 12.46 81.0529 11.96C81.1929 11.44 81.3329 10.93 81.4729 10.43C81.6129 9.95 81.7529 9.53 81.8929 9.17C82.0329 8.79 82.1429 8.46 82.2229 8.18C82.3229 7.9 82.3629 7.66 82.3429 7.46C81.9029 7.5 81.4929 7.55 81.1129 7.61C80.7529 7.67 80.3729 7.73 79.9729 7.79C79.5929 7.83 79.1229 7.89 78.5629 7.97C78.2229 8.01 77.7729 8.08 77.2129 8.18C76.6529 8.26 76.1329 8.34 75.6529 8.42C75.1929 8.48 74.9029 8.51 74.7829 8.51C74.6429 8.53 74.5229 8.57 74.4229 8.63C74.3229 8.69 74.2729 8.77 74.2729 8.87C73.9729 9.47 73.6829 10.08 73.4029 10.7C73.1229 11.3 72.8729 11.88 72.6529 12.44C72.4529 12.98 72.3029 13.46 72.2029 13.88C72.1629 13.96 72.0829 14.16 71.9629 14.48C71.8429 14.8 71.7029 15.17 71.5429 15.59C71.3829 16.01 71.2329 16.41 71.0929 16.79C70.9529 17.17 70.8429 17.47 70.7629 17.69C70.7029 17.89 70.6829 17.94 70.7029 17.84C70.4029 18.8 70.1529 19.56 69.9529 20.12C69.7729 20.66 69.6229 21.09 69.5029 21.41C69.3829 21.73 69.2829 22.01 69.2029 22.25C69.1229 22.49 69.0429 22.78 68.9629 23.12C68.8429 23.44 68.7429 23.77 68.6629 24.11C68.5829 24.45 68.5029 24.79 68.4229 25.13C68.4029 25.23 68.3729 25.34 68.3329 25.46C68.3129 25.58 68.2729 25.83 68.2129 26.21C68.1329 26.37 68.0329 26.49 67.9129 26.57C67.8129 26.67 67.6529 26.71 67.4329 26.69Z" fill="#1ACD4C"/>
</svg>
