<svg width="97" height="97" viewBox="0 0 97 97" fill="none" xmlns="http://www.w3.org/2000/svg">
<g clip-path="url(#clip0_0_21)">
<path d="M33.0776 56.3209C34.2735 57.5169 34.7738 59.2201 34.4158 60.8774C34.4069 60.9182 34.4178 60.961 34.4451 60.9927C34.4473 60.9953 34.4497 60.9978 34.452 61.0002C34.4791 61.0272 34.5164 61.0415 34.5548 61.039C36.6301 60.9113 38.6618 61.6796 40.129 63.1468C40.6289 63.6467 41.0387 64.2028 41.3616 64.7941L43.9993 58.782L38.0293 52.8121L31.9517 55.4785C32.3558 55.6992 32.7359 55.9792 33.0776 56.3209Z" fill="#D9EAFC"/>
<path d="M38.8077 53.5904L38.0294 52.8121L31.9518 55.4785C32.295 55.6661 32.6194 55.8992 32.9193 56.1737L38.8077 53.5904Z" fill="#AEC1ED"/>
<path d="M26.7927 58.9735C26.7715 59.0022 26.7626 59.0382 26.768 59.0734C26.7723 59.1017 26.7856 59.1277 26.8055 59.1477C26.8105 59.1526 26.8158 59.1572 26.8215 59.1614C27.2127 59.4452 27.5789 59.7569 27.9098 60.0878C29.5264 61.7044 30.461 63.8539 30.5418 66.1406C30.5431 66.1756 30.5578 66.2072 30.581 66.2304C30.6041 66.2535 30.6357 66.2683 30.6708 66.2695C32.9574 66.3503 35.107 67.285 36.7236 68.9016C37.0544 69.2324 37.3662 69.5986 37.65 69.9898C37.6543 69.9956 37.6588 70.0009 37.6637 70.0058C37.6837 70.0258 37.7097 70.0391 37.7379 70.0434C37.7732 70.0487 37.8091 70.0399 37.8379 70.0187C39.1885 69.0175 40.7447 68.3463 42.3807 68.0383C42.3234 66.2278 41.6057 64.4343 40.2236 63.0521C38.6659 61.4944 36.5852 60.78 34.5467 60.9056C34.8998 59.2712 34.4427 57.4968 33.1723 56.2264C31.9537 55.0078 30.2714 54.5377 28.6935 54.813C28.357 56.3085 27.7156 57.7286 26.7927 58.9735Z" fill="#AEC1ED"/>
<path d="M26.9002 59.0528C30.1611 54.654 29.7985 48.4144 25.8103 44.4262C23.0416 41.6576 19.1881 40.6373 15.6185 41.3623C14.1386 47.1975 14.2901 53.3597 16.0697 59.1282C19.2686 56.7366 23.6755 56.7124 26.9002 59.0528Z" fill="#445EA0"/>
<path d="M25.6268 46.1965C27.653 48.2227 28.7917 50.7988 29.0481 53.4443C29.3555 50.2225 28.2777 46.8936 25.8103 44.4262C23.0416 41.6576 19.1881 40.6373 15.6185 41.3623C15.4908 41.8656 15.3762 42.3717 15.2728 42.8795C18.9264 42.2738 22.8082 43.3779 25.6268 46.1965Z" fill="#293D7C"/>
<path d="M52.3848 71.0008C48.3966 67.0127 42.1569 66.6501 37.7582 69.9109C40.0986 73.1356 40.0744 77.5426 37.6828 80.7414C43.4512 82.5209 49.6136 82.6724 55.4487 81.1927C56.1737 77.623 55.1534 73.7695 52.3848 71.0008Z" fill="#445EA0"/>
<path d="M52.8507 71.4962C52.7011 71.3278 52.5463 71.1623 52.3848 71.0008C48.3966 67.0127 42.1569 66.6501 37.7582 69.9109C38.0076 70.2545 38.2284 70.6123 38.424 70.9797C42.8336 68.1513 48.6087 68.3218 52.8507 71.4962Z" fill="#293D7C"/>
<path d="M36.818 68.8069C35.1148 67.1036 32.9067 66.2146 30.6755 66.1358C30.5968 63.9045 29.7077 61.6966 28.0044 59.9933C24.7489 56.7377 19.6501 56.4504 16.0682 59.1295C17.5895 64.0613 20.2994 68.7052 24.2028 72.6085C28.1062 76.5119 32.7501 79.2218 37.6819 80.7431C40.3609 77.1612 40.0736 72.0625 36.818 68.8069Z" fill="#293D7C"/>
<path d="M28.5522 62.1491C29.4442 63.0411 30.122 64.0659 30.5866 65.1596C30.3168 63.2695 29.4583 61.4473 28.0043 59.9933C24.7488 56.7377 19.65 56.4504 16.0681 59.1295C16.2475 59.7108 16.4438 60.288 16.6563 60.8604C20.3512 58.4905 25.321 58.9179 28.5522 62.1491Z" fill="#1A2B63"/>
<path d="M43.1442 57.9265L41.7149 56.4971L40.4544 58.1223C40.1149 58.5599 40.1954 59.19 40.6322 59.5291C41.0699 59.8684 41.6998 59.7889 42.0391 59.3513L43.1442 57.9265Z" fill="#AEC1ED"/>
<path d="M38.8845 53.6668L35.5429 56.2586C35.1053 56.598 35.0256 57.228 35.3651 57.6656C35.3915 57.6995 35.4196 57.7314 35.4493 57.7611C35.8013 58.113 36.3686 58.1565 36.7722 57.8434L40.3142 55.0963L38.8846 53.6668L38.8845 53.6668Z" fill="#AEC1ED"/>
<path d="M46.8353 35.4366C47.6063 34.6656 48.4042 33.9256 49.2216 33.2163C45.6659 32.2226 41.2452 33.5091 37.9414 36.8129C36.1965 38.5578 34.9663 40.6557 34.3838 42.8797C34.329 43.0885 34.3931 43.3033 34.538 43.4482C34.5909 43.5011 34.6545 43.5447 34.7271 43.5751C36.2467 44.2128 37.6259 45.1389 38.8306 46.3248C40.7919 42.4759 43.5383 38.7336 46.8353 35.4366Z" fill="#FE3745"/>
<path d="M39.0134 37.8853C41.7422 35.1565 45.2326 33.8056 48.3684 33.9774C48.6506 33.7205 48.9344 33.4661 49.2217 33.2168C45.666 32.2231 41.2453 33.5096 37.9415 36.8134C36.1966 38.5583 34.9664 40.6562 34.3839 42.8802C34.3291 43.089 34.3932 43.3038 34.5381 43.4486C34.591 43.5016 34.6546 43.5452 34.7272 43.5756C34.9777 43.6806 35.2229 43.7966 35.4655 43.9172C36.0518 41.7061 37.2777 39.621 39.0134 37.8853Z" fill="#B7092B"/>
<path d="M63.5946 47.5893C62.8852 48.4068 62.1452 49.2047 61.3743 49.9756C58.0774 53.2725 54.3351 56.0189 50.486 57.9802C51.6719 59.185 52.598 60.5641 53.2357 62.0837C53.2661 62.1563 53.3098 62.22 53.3626 62.2729C53.5076 62.4178 53.7224 62.4817 53.9311 62.4271C56.1552 61.8446 58.253 60.6143 59.9979 58.8694C63.3018 55.5658 64.5883 51.145 63.5946 47.5893Z" fill="#FE3745"/>
<path d="M39.9519 49.6187L37.7723 51.7982C37.5123 52.0582 37.5123 52.4837 37.7723 52.7436L44.0672 59.0385C44.3272 59.2985 44.7527 59.2985 45.0126 59.0385L47.1922 56.859L39.9519 49.6187Z" fill="#FE3745"/>
<path d="M39.3802 53.4061L41.5598 51.2265L39.9519 49.6187L37.7723 51.7982C37.5123 52.0582 37.5123 52.4837 37.7723 52.7437L39.3802 54.3515C39.1202 54.0915 39.1202 53.6661 39.3802 53.4061Z" fill="#B7092B"/>
<path d="M69.8228 38.4948L58.3162 26.9882C54.2218 28.9734 50.2442 31.8387 46.7408 35.3421C43.0988 38.9841 40.123 43.1679 38.1351 47.4411C38.0303 47.6665 38.0774 47.9333 38.2532 48.1091L48.7019 58.5578C48.8776 58.7335 49.1445 58.7807 49.3698 58.6759C53.643 56.6879 57.8269 53.7121 61.4689 50.0702C64.9723 46.5669 67.8375 42.5893 69.8228 38.4948Z" fill="#EEF6FF"/>
<path d="M39.475 48.781C41.4629 44.5077 44.4388 40.3239 48.0807 36.6819C51.5841 33.1786 55.5618 30.3133 59.6561 28.328L58.3163 26.9882C54.2219 28.9734 50.2442 31.8387 46.7409 35.3421C43.0989 38.9841 40.1231 43.1679 38.1352 47.4411C38.0304 47.6665 38.0775 47.9333 38.2533 48.1091L39.5931 49.4489C39.4174 49.2732 39.3703 49.0064 39.475 48.781Z" fill="#D9EAFC"/>
<path d="M61.3447 30.0171L59.7759 31.5859C59.5159 31.8459 59.5159 32.2714 59.7759 32.5313L64.2801 37.0355C64.54 37.2955 64.9655 37.2955 65.2255 37.0355L66.7943 35.4667L61.3447 30.0171Z" fill="#EA2A3D"/>
<path d="M60.8478 32.6578L62.4166 31.089L61.3447 30.0171L59.7759 31.5859C59.5159 31.8459 59.5159 32.2714 59.7759 32.5313L60.8478 33.6033C60.5878 33.3433 60.5878 32.9178 60.8478 32.6578Z" fill="#B7092B"/>
<path d="M72.6084 24.2027C72.5151 24.1094 72.3908 24.0472 72.2519 24.0326C68.4298 23.6309 64.0567 24.4462 59.6054 26.3908C59.1319 26.5977 58.6596 26.8194 58.1888 27.0499L69.7611 38.6222C69.9916 38.1513 70.2133 37.6791 70.4202 37.2055C72.3648 32.7543 73.1802 28.3812 72.7784 24.5591C72.7638 24.4203 72.7017 24.296 72.6084 24.2027Z" fill="#FE3745"/>
<path d="M72.8408 25.3101C72.8249 25.0577 72.8045 24.8072 72.7785 24.5592C72.7638 24.4203 72.7017 24.296 72.6084 24.2027C72.5151 24.1094 72.3908 24.0472 72.2519 24.0326C68.4298 23.6309 64.0567 24.4462 59.6054 26.3908C59.1319 26.5977 58.6596 26.8194 58.1888 27.0499L59.5287 28.3898C59.9995 28.1593 60.4717 27.9376 60.9453 27.7306C65.1079 25.9123 69.2016 25.0818 72.8408 25.3101Z" fill="#B7092B"/>
<path d="M50.6793 46.1318C53.3433 48.7957 57.6625 48.7957 60.3264 46.1318C62.9904 43.4678 62.9904 39.1487 60.3264 36.4847C57.6625 33.8207 53.3433 33.8207 50.6793 36.4847C48.0154 39.1486 48.0154 43.4678 50.6793 46.1318Z" fill="#445EA0"/>
<path d="M52.4084 44.403C54.1175 46.112 56.8883 46.112 58.5973 44.403C60.3064 42.694 60.3064 39.9231 58.5973 38.2141C56.8883 36.5051 54.1174 36.5051 52.4084 38.2141C50.6994 39.9231 50.6994 42.694 52.4084 44.403Z" fill="#69CDFF"/>
<path d="M53.5426 39.3485C52.0274 40.8637 51.8566 43.213 53.0281 44.9176C52.8101 44.7677 52.602 44.597 52.4081 44.4031C50.699 42.694 50.6992 39.9231 52.4082 38.2141C54.1173 36.5051 56.8881 36.505 58.5971 38.2141C58.791 38.4079 58.9617 38.6161 59.1116 38.8341C57.4071 37.6625 55.0579 37.8333 53.5426 39.3485Z" fill="#52BBEF"/>
<path d="M41.9199 27.3106C41.8115 27.2022 41.779 27.0391 41.8378 26.8974C42.5843 25.0952 42.5842 24.317 41.8377 22.5149C41.7789 22.3731 41.8115 22.2101 41.9199 22.1017C42.0283 21.9933 42.1914 21.9608 42.3331 22.0195C44.1355 22.7659 44.9137 22.7658 46.7157 22.0194C46.8575 21.9607 47.0206 21.9931 47.129 22.1015C47.2374 22.21 47.2699 22.373 47.2111 22.5148C46.4648 24.3169 46.4648 25.0952 47.2111 26.8975C47.2699 27.0393 47.2374 27.2024 47.129 27.3108C47.0206 27.4192 46.8574 27.4518 46.7157 27.3929C44.9137 26.6463 44.1354 26.6463 42.3332 27.3928C42.1914 27.4515 42.0283 27.419 41.9199 27.3106Z" fill="#FFD00D"/>
<path d="M42.9097 26.8977C43.6562 25.0955 43.6561 24.3173 42.9096 22.5152C42.8726 22.4262 42.8719 22.3287 42.9032 22.2417C42.7236 22.1766 42.5357 22.1036 42.3331 22.0198C42.1913 21.9611 42.0283 21.9936 41.9199 22.102C41.8115 22.2105 41.7789 22.3736 41.8377 22.5152C42.5842 24.3173 42.5843 25.0955 41.8377 26.8977C41.779 27.0394 41.8115 27.2025 41.9199 27.3109C42.0283 27.4194 42.1914 27.4518 42.3331 27.3931C42.5357 27.3091 42.7237 27.2362 42.9031 27.1712C42.8719 27.0842 42.8728 26.9867 42.9097 26.8977Z" fill="#FFAF10"/>
<path d="M68.2656 57.9422C68.1703 57.8469 68.1417 57.7036 68.1934 57.579C68.8496 55.9949 68.8495 55.3109 68.1933 53.7269C68.1417 53.6025 68.1702 53.459 68.2655 53.3637C68.3609 53.2683 68.5041 53.2398 68.6287 53.2914C70.2131 53.9475 70.8971 53.9474 72.481 53.2913C72.6056 53.2397 72.749 53.2683 72.8443 53.3636C72.9396 53.4589 72.9681 53.6022 72.9165 53.7268C72.2604 55.3109 72.2605 55.9949 72.9166 57.5793C72.9681 57.7038 72.9397 57.847 72.8443 57.9424C72.749 58.0377 72.6056 58.0663 72.481 58.0147C70.897 57.3584 70.213 57.3583 68.6288 58.0145C68.5044 58.0661 68.361 58.0376 68.2656 57.9422Z" fill="white"/>
<path d="M69.1356 57.579C69.7917 55.9949 69.7917 55.3109 69.1355 53.7267C69.1031 53.6485 69.1023 53.5629 69.1299 53.4863C68.9721 53.4291 68.8068 53.3649 68.6287 53.2912C68.5042 53.2397 68.3609 53.2681 68.2655 53.3635C68.1702 53.4588 68.1417 53.6021 68.1933 53.7267C68.8496 55.3109 68.8496 55.9948 68.1934 57.5788C68.1417 57.7034 68.1703 57.8468 68.2656 57.9421C68.3609 58.0374 68.5042 58.0659 68.6288 58.0143C68.8068 57.9405 68.9721 57.8764 69.13 57.8193C69.1025 57.743 69.1032 57.6573 69.1356 57.579Z" fill="#D9EAFC"/>
<path d="M75.7659 45.5261C75.6548 45.415 75.6216 45.2479 75.6817 45.1028C76.4463 43.2569 76.4463 42.46 75.6816 40.6142C75.6214 40.4692 75.6548 40.3021 75.7658 40.1911C75.877 40.08 76.044 40.0469 76.189 40.1068C78.0351 40.8714 78.8321 40.8714 80.6777 40.1068C80.8229 40.0467 80.9899 40.0799 81.101 40.1909C81.2121 40.302 81.2453 40.4691 81.1852 40.6143C80.4207 42.4601 80.4207 43.2571 81.1853 45.1031C81.2453 45.2482 81.2121 45.4151 81.1009 45.5262C80.9899 45.6372 80.8228 45.6705 80.6778 45.6104C78.832 44.8456 78.035 44.8458 76.1891 45.6102C76.0441 45.6703 75.877 45.6371 75.7659 45.5261Z" fill="#FF9518"/>
<path d="M76.7796 45.1027C77.5441 43.2569 77.5441 42.4599 76.7794 40.614C76.7416 40.5229 76.7409 40.4231 76.7729 40.3339C76.589 40.2674 76.3963 40.1926 76.1889 40.1065C76.0438 40.0465 75.8769 40.0797 75.7657 40.1908C75.6547 40.3018 75.6215 40.469 75.6815 40.6139C76.4461 42.4598 76.4462 43.2569 75.6816 45.1025C75.6215 45.2476 75.6547 45.4147 75.7658 45.5258C75.8769 45.6369 76.044 45.67 76.1891 45.61C76.3966 45.5241 76.5892 45.4493 76.773 45.3827C76.7409 45.2936 76.7418 45.1938 76.7796 45.1027Z" fill="#EF8318"/>
</g>
<defs>
<clipPath id="clip0_0_21">
<rect width="68.4558" height="68.4558" fill="white" transform="translate(48.4056) rotate(45)"/>
</clipPath>
</defs>
</svg>
