<svg width="100" height="100" viewBox="0 0 100 100" fill="none" xmlns="http://www.w3.org/2000/svg">
<g clip-path="url(#clip0_0_104)">
<path d="M31.6788 56.6951C29.0139 56.6951 26.8487 54.6964 26.6821 52.0315C33.0113 49.3666 36.8421 43.0375 36.6755 36.2087C36.6755 35.8756 36.6755 35.2094 36.6755 35.0428C36.6755 26.715 30.0133 20.0527 21.6854 20.0527H1.69867C0.699337 20.0527 0.0331116 20.719 0.0331116 21.7183C0.0331116 25.5491 1.53212 29.2133 4.03046 31.8782C3.69735 33.5438 3.36424 35.0428 3.36424 36.7084C3.36424 43.3706 7.36159 49.3666 13.3576 52.0315C13.1911 54.6964 11.0258 56.6951 8.36093 56.6951C3.69735 56.6951 0.0331116 60.3594 0.0331116 65.0229V98.3342C0.0331116 99.3335 0.699337 99.9998 1.69867 99.9998H38.3411C39.3404 99.9998 40.0066 99.3335 40.0066 98.3342V65.0229C40.0066 60.3594 36.3424 56.6951 31.6788 56.6951ZM3.53079 23.3839H21.6854C27.5149 23.3839 32.345 27.7143 33.1778 33.3772H15.0232C9.19371 33.3772 4.36358 29.0468 3.53079 23.3839ZM6.69536 36.7084C6.69536 35.8756 6.69536 35.0428 6.86192 34.3766C9.36027 35.8756 12.1917 36.7084 15.0232 36.7084H33.3444C33.3444 42.3713 29.8467 47.368 24.5169 49.2001C23.8507 49.3666 23.351 50.0329 23.351 50.6991V51.6984C23.351 53.8637 24.1838 56.0289 25.8493 57.6945L21.5189 58.3607H18.5209L14.1904 57.6945C15.856 56.1955 16.6887 54.0302 16.6887 51.6984V50.8657C16.6887 50.1994 16.1891 49.5332 15.5229 49.3666C10.193 47.368 6.69536 42.3713 6.69536 36.7084ZM23.351 81.1789L20.0199 84.3435L16.8553 81.1789L19.8533 61.6918H20.353L23.351 81.1789ZM3.36424 65.0229C3.36424 62.358 5.52947 60.0263 8.19437 60.0263L16.3556 61.3587L13.1911 81.3455C13.1911 81.8451 13.3576 82.3448 13.6907 82.8445L18.6874 87.8412C19.3536 88.5074 20.353 88.5074 21.0192 87.8412L26.0159 82.8445C26.349 82.5114 26.5156 82.0117 26.5156 81.3455L23.351 61.3587L31.5123 60.0263C34.1772 60.0263 36.3424 62.358 36.3424 65.0229V90.0064H3.36424V65.0229ZM36.6755 96.6686H3.36424V93.3375H36.6755V96.6686Z" fill="#F09F0C"/>
<path d="M93.3046 13.3906H85.8096L83.9775 10.5592C83.1447 9.22671 81.4791 8.39393 79.8136 8.39393H76.1493C75.3166 8.39393 74.6503 7.89426 74.4838 7.06148C72.8182 1.73168 67.3219 -1.09978 61.9921 0.399228C58.8275 1.39857 56.3291 3.89691 55.3298 7.06148C55.1632 7.72771 54.497 8.39393 53.6642 8.39393H50C48.3344 8.39393 46.8354 9.22671 45.8361 10.5592L44.1705 13.3906H36.6755C33.0113 13.3906 30.0132 16.3886 30.0132 20.0529H33.3444C33.3444 18.2208 34.8434 16.7218 36.6755 16.7218H42.0053C41.006 18.2208 41.6722 20.386 43.1712 21.2188C43.6709 21.5519 44.3371 21.7184 44.8368 21.7184H85.3099C87.1421 21.7184 88.6411 20.2194 88.6411 18.3873C88.6411 17.7211 88.4745 17.2214 88.1414 16.7218H93.3046C95.1368 16.7218 96.6358 18.2208 96.6358 20.0529V93.3377C96.6358 95.1698 95.1368 96.6688 93.3046 96.6688H43.3377V99.9999H93.3046C96.9689 99.9999 99.9669 97.0019 99.9669 93.3377V20.0529C99.9669 16.3886 96.9689 13.3906 93.3046 13.3906ZM44.8368 18.3873L48.6676 12.3913C49.0007 12.0582 49.5003 11.7251 50.1666 11.7251H53.8308C55.996 11.7251 57.9947 10.2261 58.6609 8.06082C59.8268 4.56314 63.4911 2.56446 66.9887 3.73035C69.154 4.39658 70.653 6.06214 71.3192 8.06082C71.9854 10.2261 73.9841 11.7251 76.1493 11.7251H79.8136C80.3133 11.7251 80.8129 12.0582 81.146 12.3913L85.1434 18.3873H44.8368Z" fill="#F09F0C"/>
<path d="M66.6556 6.72852H63.3245V10.0596H66.6556V6.72852Z" fill="#F09F0C"/>
<path d="M57.8281 41.2058L55.4963 38.874L51.6655 42.7048L47.8347 38.874L45.503 41.2058L49.3338 45.0366L45.503 48.8674L47.8347 51.1992L51.6655 47.3684L55.4963 51.1992L57.8281 48.8674L53.9973 45.0366L57.8281 41.2058Z" fill="#F09F0C"/>
<path d="M76.1494 74.5168L73.8176 72.1851L69.9868 76.0159L66.156 72.1851L63.8242 74.5168L67.655 78.3476L63.8242 82.1784L66.156 84.5102L69.9868 80.6794L73.8176 84.5102L76.1494 82.1784L72.3186 78.3476L76.1494 74.5168Z" fill="#F09F0C"/>
<path d="M77.8149 47.2018C77.1487 46.5356 76.1493 46.5356 75.4831 47.2018L68.8209 53.8641L71.1526 56.1959L74.9834 52.3651V55.8627C74.9834 60.0267 71.6523 63.3578 67.4884 63.3578C61.4924 63.3578 56.6622 68.1879 56.6622 74.1839V75.8495C56.6622 80.0134 53.3311 83.3446 49.1672 83.3446H45.0033V86.6757H49.1672C55.1632 86.6757 59.9934 81.8455 59.9934 75.8495V74.1839C59.9934 70.02 63.3245 66.6889 67.4884 66.6889C73.4844 66.6889 78.3146 61.8588 78.3146 55.8627V52.3651L82.1454 56.1959L84.4771 53.8641L77.8149 47.2018Z" fill="#F09F0C"/>
<path d="M87.8083 28.0477L85.4765 25.5494L83.3113 27.7146C79.3139 24.0504 72.9848 24.3835 69.3205 28.5474C65.6563 32.7113 65.9894 38.8739 70.1533 42.5382C74.3172 46.2024 80.4798 45.8693 84.144 41.7054C86.9755 38.5408 87.4752 34.0438 85.4765 30.3795L87.8083 28.0477ZM76.649 41.7054C72.9848 41.7054 69.9868 38.7074 69.9868 35.0431C69.9868 31.3789 72.9848 28.3809 76.649 28.3809C78.3146 28.3809 79.8136 29.0471 80.9795 30.0464L76.649 34.3769L74.4838 32.2117L72.152 34.5434L75.4831 37.8746C76.1493 38.5408 77.1487 38.5408 77.8149 37.8746L82.8116 32.8779C83.1447 33.5441 83.3113 34.2103 83.3113 35.0431C83.3113 38.7074 80.3132 41.7054 76.649 41.7054Z" fill="#F09F0C"/>
<path d="M31.6788 68.3545H26.6821V71.6856H31.6788V68.3545Z" fill="#F09F0C"/>
<path d="M89.9735 21.7188V90.0068H43.3377V93.338H91.6391C92.6384 93.338 93.3046 92.6717 93.3046 91.6724V21.7188H89.9735Z" fill="#F09F0C"/>
</g>
<defs>
<clipPath id="clip0_0_104">
<rect width="100" height="100" fill="white"/>
</clipPath>
</defs>
</svg>
