<svg width="100" height="100" viewBox="0 0 100 100" fill="none" xmlns="http://www.w3.org/2000/svg">
<path d="M98.576 68.5367C98.5754 68.5367 98.5748 68.5365 98.5742 68.5365V68.5315L92.1209 67.6106C91.2135 67.4824 90.5819 66.6427 90.7101 65.7355C90.7719 65.298 91.0056 64.9033 91.3593 64.6387L93.475 63.0556H97.9021C98.8185 63.0556 99.5615 62.3126 99.5615 61.3963V1.65936C99.5615 0.742978 98.8185 0 97.9021 0H1.65936C0.742979 0 1.47399e-06 0.742978 1.47399e-06 1.65936V61.3963C1.47399e-06 62.3126 0.742979 63.0556 1.65936 63.0556H5.95046L3.80491 65.2012C3.23948 65.7672 3.15859 66.6562 3.61242 67.3152L6.76521 71.9017L1.31089 73.0466C0.545308 73.2111 -0.00103562 73.8881 1.47399e-06 74.6711V81.3086C-0.000413366 82.0935 0.549457 82.7713 1.31753 82.9331L6.77184 84.0797L3.61906 88.6645C3.16523 89.3235 3.24612 90.2125 3.81155 90.7785L8.78962 95.7566C9.35567 96.322 10.2447 96.4029 10.9036 95.9491L15.4885 92.7963L16.6351 98.2506C16.7989 99.0137 17.4724 99.5594 18.2529 99.5615H24.8904C25.6753 99.5619 26.3531 99.0121 26.5149 98.244L27.6615 92.788L32.2463 95.9491C32.9053 96.4029 33.7943 96.322 34.3603 95.7566L39.3384 90.7785C39.9038 90.2125 39.9847 89.3235 39.5309 88.6645L36.3781 84.078L41.8324 82.9331C42.598 82.7686 43.1444 82.0916 43.1433 81.3086V74.6711C43.1437 73.8863 42.5939 73.2084 41.8258 73.0466L36.3715 71.9L39.5243 67.3152C39.9781 66.6562 39.8972 65.7672 39.3318 65.2012L37.1929 63.0556H44.041L42.7135 72.29C42.582 73.1968 43.2105 74.0387 44.1174 74.1704C44.1244 74.1715 44.1317 74.1725 44.1387 74.1733L50.592 75.0943C51.4994 75.2225 52.131 76.0621 52.0028 76.9693C51.941 77.4068 51.7073 77.8015 51.3536 78.0662L46.1302 81.9723C45.3969 82.5222 45.2484 83.5622 45.7983 84.2954L51.772 92.2603C52.3219 92.9936 53.3619 93.1421 54.0951 92.5922L59.3104 88.6794C60.0435 88.1294 61.0837 88.2779 61.6336 89.0109C61.898 89.3633 62.0115 89.8064 61.9488 90.2426L61.0262 96.6958C60.8962 97.6031 61.5261 98.4437 62.4332 98.574C62.4338 98.574 62.4344 98.5742 62.435 98.5742L72.2899 99.9813C72.3679 99.9932 72.4468 99.9994 72.5256 99.9996C73.3515 99.9996 74.0518 99.3921 74.1683 98.5742L75.0909 92.1209C75.2202 91.2137 76.0604 90.5829 76.9677 90.7122C77.4037 90.7742 77.7969 91.0071 78.0612 91.3593L81.9723 96.5747C82.5222 97.3079 83.5622 97.4564 84.2954 96.9065L92.2603 90.9329C92.9936 90.383 93.1421 89.343 92.5922 88.6097L88.6794 83.3944C88.1294 82.6614 88.2779 81.6212 89.0109 81.0713C89.3633 80.8068 89.8065 80.6934 90.2425 80.756L96.6958 81.6769C97.6028 81.8072 98.4439 81.1773 98.5742 80.2702C98.5742 80.27 98.5742 80.27 98.5742 80.2698L99.983 70.4149C100.113 69.5078 99.4831 68.667 98.576 68.5367ZM39.8246 76.0185V79.9612L35.6878 80.8307C33.8941 81.2076 32.7456 82.9671 33.1225 84.7609C33.2131 85.1919 33.3884 85.6005 33.6385 85.9631L36.0081 89.4096L32.9914 92.4263L29.5449 90.0501C28.0357 89.0101 25.9692 89.3905 24.929 90.8997C24.6796 91.2616 24.5046 91.6694 24.4141 92.0994L23.543 96.2428H19.6003L18.7292 92.1077C18.3498 90.3145 16.5886 89.1683 14.7955 89.5477C14.3696 89.6377 13.9658 89.8107 13.6067 90.0567L10.152 92.4263L7.13524 89.4096L9.51144 85.9631C10.5523 84.4543 10.1731 82.3876 8.66434 81.3467C8.30177 81.0966 7.89316 80.9211 7.46214 80.8307L3.31872 79.9612V76.0185L7.4555 75.149C9.24864 74.7695 10.3944 73.008 10.0149 71.2149C9.92462 70.7887 9.75122 70.3842 9.50481 70.0249L7.13524 66.5702L10.152 63.5534L13.6067 65.923C15.1159 66.963 17.1827 66.5826 18.2227 65.0734C18.472 64.7115 18.647 64.3037 18.7375 63.8737L19.6003 59.7369H23.543L24.4141 63.872C24.7908 65.6658 26.5501 66.8147 28.3439 66.438C28.7743 66.3476 29.1825 66.1725 29.5449 65.923L32.9914 63.5534L36.0081 66.5702L33.6385 70.0249C32.5977 71.5337 32.9768 73.6004 34.4856 74.6413C34.8482 74.8914 35.2568 75.0669 35.6878 75.1573L39.8246 76.0185ZM28.6521 62.5064L27.6565 63.19L26.5099 57.7357C26.3485 56.9693 25.6734 56.4203 24.8904 56.4182H21.5717V44.8027H28.2091V61.3963C28.2118 61.8088 28.3701 62.2052 28.6521 62.5064ZM36.5059 34.8465C35.5895 34.8465 34.8465 35.5895 34.8465 36.5059V59.7369H31.5278V43.1433C31.5278 42.2269 30.7848 41.484 29.8685 41.484H19.9123C18.9959 41.484 18.2529 42.2269 18.2529 43.1433V56.4182C17.4681 56.4178 16.7902 56.9676 16.6284 57.7357L15.4818 63.1917L10.897 60.0306C10.6193 59.8441 10.2907 59.7481 9.95615 59.7552V59.7369H3.31872V3.31872H96.2428V57.525L90.9328 50.4445C90.383 49.7113 89.343 49.5628 88.6097 50.1126L83.3944 54.0254C82.6614 54.5755 81.6211 54.427 81.0713 53.6939C80.8068 53.3415 80.6934 52.8985 80.756 52.4623L81.6786 46.009C81.7419 45.5494 81.6075 45.0846 81.3086 44.7297V14.9342C81.3086 14.0178 80.5656 13.2749 79.6492 13.2749H69.6931C68.7767 13.2749 68.0337 14.0178 68.0337 14.9342V47.6468L67.6139 50.5839C67.4921 51.4847 66.6631 52.1165 65.7622 51.9948C65.3526 51.9394 64.9788 51.732 64.715 51.4136V23.231C64.715 22.3146 63.972 21.5717 63.0556 21.5717H53.0995C52.1831 21.5717 51.4401 22.3146 51.4401 23.231V51.0253L50.4445 51.772C49.7113 52.3219 49.5628 53.3619 50.1126 54.0951L54.0254 59.3105C54.5755 60.0435 54.427 61.0837 53.6939 61.6336C53.3415 61.898 52.8983 62.0115 52.4623 61.9488L48.1214 61.3299V36.5059C48.1214 35.5895 47.3784 34.8465 46.462 34.8465H36.5059ZM77.9898 16.5936V43.8071L71.3524 42.8579V16.5936H77.9898ZM61.3963 24.8904V47.0163L60.7325 46.1302C60.1826 45.3969 59.1426 45.2484 58.4094 45.7983L54.7588 48.5362V24.8904H61.3963ZM44.8027 59.7369H38.1652V38.1652H44.8027V59.7369ZM95.5226 78.1558L90.7105 77.4688C87.9887 77.0801 85.4673 78.9714 85.0786 81.6931C84.8919 83.0001 85.2321 84.3278 86.0245 85.3839L88.9416 89.2735L83.6317 93.256L80.7162 89.3681C79.0678 87.1676 75.9478 86.7202 73.7475 88.3683C72.6896 89.1607 71.9904 90.3413 71.8038 91.6497L71.1168 96.4618L64.549 95.5226L65.236 90.7105C65.6239 87.9887 63.7318 85.4678 61.01 85.0799C59.7043 84.8938 58.3781 85.2336 57.3225 86.0245L53.4313 88.9416L49.4489 83.6317L53.3351 80.7162C55.5348 79.0668 55.9809 75.9466 54.3315 73.7471C53.5396 72.6909 52.3604 71.9925 51.0535 71.8054L46.2413 71.1168L47.1805 64.5474L51.9927 65.2344C54.7144 65.6231 57.2358 63.7318 57.6245 61.0101C57.8112 59.7031 57.4711 58.3754 56.6787 57.3192L53.7632 53.4314L59.0732 49.4489L61.9886 53.3368C63.637 55.5373 66.757 55.9847 68.9573 54.3365C70.0152 53.5442 70.7144 52.3635 70.9011 51.0551L71.588 46.243L78.1574 47.1822L77.4705 51.9943C77.0826 54.7161 78.9747 57.2371 81.6964 57.625C83.0021 57.811 84.3284 57.4713 85.3839 56.6804L89.2735 53.7632L93.2559 59.0732L89.3697 61.9887C87.17 63.6381 86.7239 66.7583 88.3733 68.9578C89.1652 70.0139 90.3444 70.7123 91.6513 70.8994L96.4635 71.588L95.5226 78.1558Z" fill="#F09F0C"/>
<path d="M21.5717 68.0327C16.073 68.0327 11.6155 72.4902 11.6155 77.9889C11.6155 83.4876 16.073 87.945 21.5717 87.945C27.0704 87.945 31.5278 83.4876 31.5278 77.9889C31.5224 72.4924 27.0681 68.0381 21.5717 68.0327ZM21.5717 84.6263C17.906 84.6263 14.9343 81.6546 14.9343 77.9889C14.9343 74.3231 17.906 71.3514 21.5717 71.3514C25.2374 71.3514 28.2091 74.3231 28.2091 77.9889C28.2091 81.6546 25.2374 84.6263 21.5717 84.6263Z" fill="#F09F0C"/>
<path d="M71.3524 58.0767C64.021 58.0767 58.0776 64.0201 58.0776 71.3515C58.0776 78.683 64.021 84.6264 71.3524 84.6264C78.6839 84.6264 84.6273 78.683 84.6273 71.3515C84.619 64.0234 78.6806 58.085 71.3524 58.0767ZM71.3524 81.3077C65.8537 81.3077 61.3963 76.8502 61.3963 71.3515C61.3963 65.8528 65.8537 61.3954 71.3524 61.3954C76.8511 61.3954 81.3086 65.8528 81.3086 71.3515C81.3032 76.8479 76.8489 81.3023 71.3524 81.3077Z" fill="#F09F0C"/>
<path d="M66.7062 6.6701L58.4095 5.01074L57.7457 8.26308L61.768 9.06953L17.4133 35.0733L19.0926 37.9374L64.0214 11.6001L63.0888 16.2612L66.3412 16.9117L68.0005 8.61487C68.1758 7.7213 67.5981 6.85346 66.7062 6.6701Z" fill="#F09F0C"/>
<path d="M9.95617 44.8018H6.63745V56.4173H9.95617V44.8018Z" fill="#F09F0C"/>
<path d="M9.95617 38.1646H6.63745V41.4833H9.95617V38.1646Z" fill="#F09F0C"/>
<path d="M92.9241 21.5708H89.6053V46.4612H92.9241V21.5708Z" fill="#F09F0C"/>
<path d="M92.9241 14.9336H89.6053V18.2523H92.9241V14.9336Z" fill="#F09F0C"/>
<path d="M41.484 94.5825H38.1653V97.9012H41.484V94.5825Z" fill="#F09F0C"/>
<path d="M48.1214 94.5825H44.8027V97.9012H48.1214V94.5825Z" fill="#F09F0C"/>
<path d="M54.7588 94.5825H51.4401V97.9012H54.7588V94.5825Z" fill="#F09F0C"/>
</svg>
