<svg width="100" height="100" viewBox="0 0 100 100" fill="none" xmlns="http://www.w3.org/2000/svg">
<g clip-path="url(#clip0_0_73)">
<path d="M98.5763 26.2593C98.5761 26.2593 98.5761 26.2593 98.5759 26.2593L98.5726 26.2559L92.1179 25.335C91.2107 25.2058 90.5799 24.3656 90.7091 23.4584C90.7711 23.0224 91.0041 22.6291 91.3563 22.3649L96.5731 18.4522C97.3063 17.9024 97.4548 16.8624 96.905 16.1292L90.9315 8.16456C90.3816 7.43135 89.3417 7.28285 88.6085 7.8327L83.3933 11.7453C82.6632 12.2993 81.6224 12.1566 81.0684 11.4265C80.7994 11.0721 80.684 10.6243 80.7483 10.1839L81.6709 3.72924C81.801 2.82202 81.171 1.98137 80.264 1.85112C80.2634 1.85112 80.2628 1.85091 80.2622 1.85091L70.4125 0.443819C69.5055 0.313563 68.6645 0.943269 68.5342 1.85049C68.5342 1.8507 68.5342 1.8507 68.5342 1.85091L67.6116 8.3056C67.4824 9.21282 66.6422 9.84357 65.735 9.71435C65.299 9.65233 64.9057 9.41941 64.6415 9.06722L60.7305 3.85037C60.1806 3.11716 59.1407 2.96866 58.4075 3.51851L53.4213 7.26024C51.1655 7.02047 48.8905 7.02047 46.6347 7.26024C31.8615 8.94879 20.2765 20.7303 18.8364 35.5298C18.7916 35.9994 18.775 36.4656 18.7518 36.9319H18.254C17.4667 36.9334 16.7886 37.488 16.6312 38.2594L15.4846 43.7118L10.8917 40.5442C10.2325 40.0894 9.3423 40.1705 8.77606 40.7367L3.79815 45.7146C3.23274 46.2806 3.15185 47.1696 3.60567 47.8286L6.75835 52.4132L1.30422 53.5598C0.541351 53.727 -0.00165551 54.4033 3.7924e-06 55.1843V61.8215C-0.000411033 62.6063 0.549441 63.2841 1.31749 63.4459L6.77162 64.5925L3.61894 69.1772C3.16512 69.8361 3.24602 70.7251 3.81142 71.2911L8.78933 76.269C9.35557 76.8353 10.2458 76.9164 10.9049 76.4615L15.4896 73.3005L16.6362 78.7547C16.7936 79.526 17.4716 80.0807 18.259 80.0821H24.8962C25.681 80.0825 26.3589 79.5327 26.5206 78.7646L27.6672 73.3105L32.2519 76.4632C32.9108 76.917 33.7998 76.8361 34.3658 76.2707L36.9427 73.6855V78.4145C36.9502 80.7751 38.2148 82.9527 40.2613 84.1292V93.3482C40.2613 97.0139 43.2329 99.9855 46.8985 99.9855H53.5358C57.2014 99.9855 60.173 97.0139 60.173 93.3482V84.1292C62.2195 82.9527 63.4841 80.7751 63.4916 78.4145V71.847C63.5366 69.0836 64.9823 66.5324 67.3296 65.0737C68.7066 64.1804 70.0124 63.1817 71.2355 62.087L69.022 59.6146C67.9279 60.5952 66.759 61.489 65.5259 62.2877C62.2311 64.3556 60.2143 67.9572 60.173 71.847V78.4145C60.173 80.2474 58.6873 81.7331 56.8544 81.7331H43.5799C41.747 81.7331 40.2613 80.2474 40.2613 78.4145V71.7093C40.223 67.8931 38.2378 64.361 34.998 62.3442C21.8466 54.0804 17.8842 36.7201 26.1479 23.5687C31.2752 15.4089 40.2234 10.4424 49.8604 10.4079C49.8357 10.4671 49.8139 10.5274 49.7957 10.5888C49.7341 11.0244 49.8482 11.4668 50.1126 11.8183L54.0236 17.0335C54.4359 17.5672 54.4756 18.3002 54.1232 18.8754C53.7838 19.454 53.1278 19.7697 52.4639 19.6735L46.0092 18.7509C45.1019 18.6209 44.2613 19.2508 44.131 20.1578C44.131 20.1584 44.1308 20.159 44.1308 20.1597L42.7221 30.0143C42.592 30.9213 43.2219 31.7621 44.129 31.8924C44.1296 31.8924 44.1302 31.8926 44.1308 31.8926L50.5855 32.8152C51.4927 32.9444 52.1235 33.7846 51.9943 34.6919C51.9323 35.1278 51.6993 35.5211 51.3471 35.7853L46.132 39.6963C45.3987 40.2462 45.2502 41.2861 45.8001 42.0193L51.7736 49.984C52.3234 50.7172 53.3634 50.8657 54.0966 50.3159L59.3135 46.4049C60.0473 45.8561 61.0872 46.006 61.6361 46.7401C61.8987 47.0912 62.0117 47.5322 61.9501 47.9663L61.0292 54.421C60.8989 55.328 61.5286 56.1691 62.4359 56.2993C62.4361 56.2993 62.4361 56.2993 62.4363 56.2993L72.2925 57.7081C72.3701 57.718 72.4483 57.723 72.5265 57.723C73.3526 57.724 74.0535 57.1171 74.1709 56.2993L75.0918 49.8446C75.221 48.9374 76.0612 48.3066 76.9684 48.4359C77.4044 48.4979 77.7977 48.7308 78.0619 49.083L81.9746 54.2982C82.5244 55.0314 83.5644 55.1799 84.2976 54.63L92.2622 48.6566C92.9954 48.1067 93.144 47.0667 92.5941 46.3335L88.6831 41.1183C88.2727 40.5838 88.233 39.8521 88.5836 39.2765C88.9156 38.6902 89.5777 38.3724 90.2429 38.48L96.6976 39.401C97.6046 39.5312 98.4456 38.9013 98.5759 37.9943C98.5759 37.9941 98.5759 37.9941 98.5759 37.9939L99.983 28.1376C100.113 27.2304 99.4835 26.3895 98.5763 26.2593ZM43.5799 85.0517H56.8544V88.3703H43.5799V85.0517ZM43.5799 91.6889H56.8544V93.3482C56.8544 95.1812 55.3687 96.6669 53.5358 96.6669H46.8985C45.0656 96.6669 43.5799 95.1812 43.5799 93.3482V91.6889ZM30.3702 63.0742C31.2762 63.8151 32.2228 64.505 33.206 65.1401C34.7738 66.1309 35.954 67.6299 36.5495 69.3862L32.9903 72.9388L29.5439 70.5627C28.0348 69.5227 25.9683 69.9031 24.9281 71.4123C24.6788 71.7742 24.5038 72.182 24.4133 72.6119L23.5439 76.7552H19.5997L18.7302 72.6186C18.3527 70.8251 16.5928 69.677 14.7993 70.0545C14.3694 70.145 13.9616 70.32 13.5997 70.5693L10.1516 72.9388L7.12837 69.9222L9.50283 66.4775C10.5438 64.969 10.1647 62.9023 8.65617 61.8613C8.29403 61.6114 7.88584 61.4359 7.45525 61.3453L3.31861 60.4741V56.5316L7.45525 55.6605C9.24813 55.2803 10.3935 53.5187 10.0133 51.7256C9.92305 51.3002 9.75028 50.8968 9.50449 50.5382L7.12837 47.0835L10.1516 44.0669L13.6013 46.443C15.1111 47.482 17.1775 47.1003 18.2165 45.5906C18.4654 45.229 18.64 44.8217 18.7302 44.3921L19.0206 43.0116C19.2865 44.9235 19.7268 46.8068 20.3364 48.6383C14.8767 49.2892 10.9784 54.243 11.6292 59.7027C12.2801 65.1625 17.2339 69.0608 22.6937 68.41C25.9803 68.0179 28.8574 66.0183 30.3702 63.0742ZM27.7933 60.7363C26.5542 64.1804 22.758 65.9679 19.3139 64.729C15.8698 63.4899 14.0823 59.6936 15.3212 56.2495C16.2691 53.6148 18.7707 51.8598 21.5707 51.8656C21.5923 51.8656 21.6122 51.8656 21.6338 51.8656C23.1597 55.1558 25.2436 58.1569 27.7933 60.7363ZM95.5161 35.8766L90.7042 35.1896C87.9825 34.8009 85.4612 36.6923 85.0725 39.4138C84.8858 40.7207 85.226 42.0484 86.0183 43.1045L88.9337 46.9923L83.6239 50.9746L80.7069 47.0885C79.0575 44.8889 75.9374 44.4428 73.738 46.0921C72.6818 46.884 71.9835 48.0631 71.7964 49.3701L71.1244 54.1887L64.5552 53.2495L65.2421 48.4375C65.6319 45.7161 63.7415 43.1939 61.0201 42.8044C59.7123 42.6171 58.384 42.9573 57.3273 43.75L53.4395 46.6654L49.4572 41.3556L53.3433 38.4386C55.5429 36.7892 55.989 33.6691 54.3397 31.4697C53.5478 30.4135 52.3686 29.7152 51.0617 29.5281L46.2498 28.8411L47.1889 22.272L52.0009 22.9589C54.7224 23.3486 57.2445 21.4583 57.634 18.7368C57.8213 17.4291 57.4812 16.1008 56.6884 15.044L53.7631 11.153L59.0729 7.17064L61.9899 11.0584C63.6393 13.258 66.7594 13.7041 68.9588 12.0548C70.0149 11.2629 70.7133 10.0838 70.9004 8.77684L71.5873 3.96486L78.1565 4.90237L77.4696 9.71435C77.0809 12.436 78.9721 14.9573 81.6937 15.346C83.0006 15.5327 84.3283 15.1925 85.3844 14.4002L89.2722 11.4848L93.2545 16.7946L89.3668 19.7117C87.1671 21.361 86.721 24.4811 88.3703 26.6805C89.1622 27.7367 90.3414 28.435 91.6483 28.6221L96.4603 29.3091L95.5161 35.8766Z" fill="#F09F0C"/>
<path d="M71.3501 15.7988C64.0188 15.7988 58.0756 21.742 58.0756 29.0733C58.0756 36.4045 64.0188 42.3477 71.3501 42.3477C78.6813 42.3477 84.6245 36.4045 84.6245 29.0733C84.6162 21.7454 78.678 15.8069 71.3501 15.7988ZM71.3501 39.0291C65.8515 39.0291 61.3942 34.5718 61.3942 29.0733C61.3942 23.5747 65.8515 19.1174 71.3501 19.1174C76.8486 19.1174 81.3059 23.5747 81.3059 29.0733C81.2994 34.5691 76.8459 39.0227 71.3501 39.0291Z" fill="#F09F0C"/>
<path d="M51.8765 73.4365H48.5579V78.4144H51.8765V73.4365Z" fill="#F09F0C"/>
<path d="M42.9594 57.1405C32.7163 53.1391 27.6564 41.5916 31.658 31.3485C33.2087 27.3795 35.9915 24.0125 39.5976 21.7426L37.8238 18.9351C26.9686 25.7737 23.7125 40.1173 30.5511 50.9725C33.1995 55.1765 37.1263 58.4207 41.7547 60.2285C45.8515 61.7982 48.5568 65.7307 48.5579 70.1179H51.8765C51.8816 64.3618 48.3345 59.1995 42.9594 57.1405Z" fill="#F09F0C"/>
<path d="M93.3591 61.8213H81.7439V65.1399H93.3591V61.8213Z" fill="#F09F0C"/>
<path d="M81.147 70.5011L79.0228 73.0508L88.9793 81.3459L91.1035 78.7963L81.147 70.5011Z" fill="#F09F0C"/>
<path d="M75.1067 75.0957H71.7881V86.7108H75.1067V75.0957Z" fill="#F09F0C"/>
<path d="M14.9679 25.3651L1.69437 28.6831L2.49873 31.9009L15.7722 28.5828L14.9679 25.3651Z" fill="#F09F0C"/>
<path d="M6.37849 9.03489L4.45068 11.7339L16.0649 20.0295L17.9927 17.3305L6.37849 9.03489Z" fill="#F09F0C"/>
<path d="M21.8828 0.0134306L18.6678 0.835449L22.0615 14.1088L25.2765 13.2868L21.8828 0.0134306Z" fill="#F09F0C"/>
</g>
<defs>
<clipPath id="clip0_0_73">
<rect width="100" height="100" fill="white"/>
</clipPath>
</defs>
</svg>
